<svg width="20" height="20" viewBox="0 0 20 20" fill="none" xmlns="http://www.w3.org/2000/svg" aria-hidden="true">
  <path d="M15.075 10.635C15.0938 12.585 16.8188 13.335 16.8375 13.3438C16.8188 13.3813 16.5375 14.3813 15.7875 15.4188C15.1313 16.3188 14.4375 17.2125 13.3688 17.2313C12.3188 17.25 11.9625 16.5938 10.7563 16.5938C9.55625 16.5938 9.15625 17.2125 8.175 17.2313C7.15625 17.25 6.36875 16.2563 5.70625 15.3625C4.34375 13.525 3.3125 9.9625 4.70625 7.66875C5.39375 6.525 6.55625 5.85 7.8125 5.83125C8.825 5.8125 9.78125 6.54375 10.4188 6.54375C11.05 6.54375 12.2188 5.6625 13.4375 5.79375C13.9625 5.81875 15.5375 6.00625 16.5563 7.46875C16.4813 7.5125 15.0563 8.31875 15.075 10.635ZM13.0625 4.36875C13.625 3.6875 14.0063 2.7375 13.9063 1.78125C13.0563 1.81875 12.025 2.33125 11.4375 3.00625C10.9188 3.59375 10.4563 4.5625 10.575 5.4875C11.5188 5.5625 12.4938 5.05 13.0625 4.36875Z" fill="#121C2A"/>
</svg>
